<svg width="24" height="24" viewBox="0 0 24 24" fill="none" xmlns="http://www.w3.org/2000/svg">
<path d="M11.9999 2.24699C9.62467 2.24599 7.32668 3.09044 5.5173 4.62916C3.70793 6.16788 2.50532 8.3004 2.1248 10.6449C1.74427 12.9894 2.21067 15.3928 3.4405 17.4248C4.67033 19.4568 6.58328 20.9847 8.83686 21.735C9.33686 21.829 9.52086 21.52 9.52086 21.254C9.52086 21.017 9.51186 20.387 9.50786 19.554C6.72686 20.154 6.13986 18.212 6.13986 18.212C5.95525 17.6074 5.56046 17.0889 5.02686 16.75C4.12186 16.13 5.09786 16.142 5.09786 16.142C5.41463 16.1858 5.71722 16.3013 5.98255 16.4798C6.24787 16.6583 6.46893 16.8951 6.62886 17.172C6.76474 17.4186 6.94817 17.6359 7.16853 17.8112C7.38889 17.9866 7.64181 18.1165 7.91268 18.1935C8.18355 18.2705 8.467 18.293 8.74663 18.2598C9.02627 18.2266 9.29655 18.1383 9.54186 18C9.58627 17.493 9.81083 17.0187 10.1749 16.663C7.95386 16.413 5.61986 15.553 5.61986 11.721C5.60571 10.7289 5.97421 9.7695 6.64886 9.04199C6.33781 8.1827 6.36932 7.23668 6.73686 6.39999C6.73686 6.39999 7.57386 6.13199 9.48686 7.42499C11.1231 6.97434 12.8507 6.97434 14.4869 7.42499C16.3869 6.13199 17.2239 6.39999 17.2239 6.39999C17.5873 7.23872 17.623 8.18323 17.3239 9.04699C17.997 9.77674 18.364 10.7373 18.3489 11.73C18.3489 15.572 16.0119 16.417 13.7869 16.663C14.0238 16.9061 14.2065 17.1967 14.3228 17.5156C14.4392 17.8345 14.4866 18.1744 14.4619 18.513C14.4619 19.852 14.4489 20.927 14.4489 21.252C14.4489 21.514 14.6239 21.827 15.1369 21.727C17.3974 20.9867 19.3196 19.464 20.5575 17.4329C21.7954 15.4017 22.2677 12.9954 21.8895 10.647C21.5114 8.29855 20.3075 6.1622 18.4945 4.62232C16.6815 3.08244 14.3785 2.24015 11.9999 2.24699Z" fill="#C6BAC5"/>
</svg>
