<svg width="24" height="24" viewBox="0 0 24 24" fill="none" xmlns="http://www.w3.org/2000/svg">
<path d="M22.0622 6.92699C21.9405 6.49091 21.7082 6.09363 21.388 5.77357C21.0678 5.45351 20.6703 5.2215 20.2342 5.09999C18.5972 4.66099 12.0102 4.66099 12.0102 4.66099C12.0102 4.66099 5.4392 4.65199 3.7852 5.09999C3.34905 5.2215 2.95164 5.45351 2.63141 5.77357C2.31117 6.09363 2.07895 6.49091 1.9572 6.92699C1.64667 8.60303 1.49367 10.3044 1.5002 12.009C1.49439 13.7068 1.64705 15.4015 1.9562 17.071C2.07774 17.5076 2.30998 17.9053 2.63042 18.2258C2.95086 18.5462 3.34863 18.7785 3.7852 18.9C5.4202 19.34 12.0102 19.34 12.0102 19.34C12.0102 19.34 18.5802 19.34 20.2342 18.9C20.6703 18.7785 21.0678 18.5465 21.388 18.2264C21.7082 17.9064 21.9405 17.5091 22.0622 17.073C22.3649 15.4029 22.5115 13.7083 22.5002 12.011C22.5126 10.3064 22.366 8.60435 22.0622 6.92699ZM9.9072 15.152V8.85199L15.3902 12.005L9.9072 15.152Z" fill="#C6BAC5"/>
</svg>
