<svg width="16" height="16" viewBox="0 0 16 16" fill="none" xmlns="http://www.w3.org/2000/svg">
<path d="M7.475 15.1C7.325 14.95 7.25 14.7707 7.25 14.562C7.25 14.354 7.31667 14.175 7.45 14.025L12.75 8.75001H1.125C0.925 8.75001 0.75 8.67901 0.6 8.53701C0.45 8.39568 0.375 8.21668 0.375 8.00001C0.375 7.78335 0.45 7.60401 0.6 7.46201C0.75 7.32068 0.925 7.25001 1.125 7.25001H12.75L7.45 1.97501C7.31667 1.82501 7.25 1.64601 7.25 1.43801C7.25 1.22935 7.325 1.05001 7.475 0.900012C7.625 0.766679 7.8 0.700012 8 0.700012C8.2 0.700012 8.375 0.766679 8.525 0.900012L14.975 7.37501C15.075 7.45835 15.146 7.55401 15.188 7.66201C15.2293 7.77068 15.25 7.88335 15.25 8.00001C15.25 8.11668 15.2293 8.22901 15.188 8.33701C15.146 8.44568 15.075 8.54168 14.975 8.62501L8.525 15.1C8.375 15.2333 8.2 15.3 8 15.3C7.8 15.3 7.625 15.2333 7.475 15.1Z" fill="#FEE5E8"/>
</svg>
