<svg width="12" height="8" viewBox="0 0 12 8" fill="none" xmlns="http://www.w3.org/2000/svg">
<path d="M5.9999 7.00677C5.88324 7.00677 5.7709 6.99011 5.6629 6.95677C5.55424 6.92344 5.45824 6.85677 5.3749 6.75677L0.849902 2.25677C0.716569 2.10677 0.649902 1.93177 0.649902 1.73177C0.649902 1.53177 0.724902 1.35677 0.874902 1.20677C1.0249 1.07344 1.1999 1.00677 1.3999 1.00677C1.5999 1.00677 1.7749 1.07344 1.9249 1.20677L5.9999 5.28177L10.0999 1.20677C10.2332 1.05677 10.3999 0.985772 10.5999 0.993772C10.7999 1.00244 10.9749 1.07344 11.1249 1.20677C11.2749 1.35677 11.3499 1.53577 11.3499 1.74377C11.3499 1.95244 11.2749 2.12344 11.1249 2.25677L6.6249 6.75677C6.54157 6.85677 6.4459 6.92344 6.3379 6.95677C6.22924 6.99011 6.11657 7.00677 5.9999 7.00677Z" fill="#C6BAC5"/>
</svg>
