<svg width="17" height="17" viewBox="0 0 17 17" fill="none" xmlns="http://www.w3.org/2000/svg">
<path d="M14.4792 4.68758L13.7708 3.18758L12.2708 2.50008L13.7708 1.79175L14.4792 0.291748L15.1667 1.79175L16.6667 2.50008L15.1667 3.18758L14.4792 4.68758ZM5.10417 4.68758L4.39583 3.18758L2.89583 2.50008L4.39583 1.79175L5.10417 0.291748L5.79167 1.79175L7.29167 2.50008L5.79167 3.18758L5.10417 4.68758ZM14.4792 14.0626L13.7708 12.5626L12.2708 11.8751L13.7708 11.1667L14.4792 9.66675L15.1667 11.1667L16.6667 11.8751L15.1667 12.5626L14.4792 14.0626ZM2.29167 16.5626L0.395833 14.6876C0.256944 14.5348 0.1875 14.3542 0.1875 14.1459C0.1875 13.9376 0.256944 13.764 0.395833 13.6251L9.25 4.77091C9.40278 4.63203 9.58333 4.56258 9.79167 4.56258C10 4.56258 10.1736 4.63203 10.3125 4.77091L12.2083 6.66675C12.3472 6.80564 12.4167 6.97925 12.4167 7.18758C12.4167 7.39591 12.3472 7.57647 12.2083 7.72925L3.35417 16.5626C3.20139 16.7154 3.02083 16.7917 2.8125 16.7917C2.60417 16.7917 2.43056 16.7154 2.29167 16.5626ZM2.83333 15.3334L8.79167 9.33341L7.625 8.16675L1.625 14.1459L2.83333 15.3334Z" fill="#FEE5E8"/>
</svg>
