<svg width="18" height="14" viewBox="0 0 18 14" fill="none" xmlns="http://www.w3.org/2000/svg">
<path d="M15.6665 3.66671L8.99984 7.83337L2.33317 3.66671V2.00004L8.99984 6.16671L15.6665 2.00004M15.6665 0.333374H2.33317C1.40817 0.333374 0.666504 1.07504 0.666504 2.00004V12C0.666504 12.4421 0.842099 12.866 1.15466 13.1786C1.46722 13.4911 1.89114 13.6667 2.33317 13.6667H15.6665C16.1085 13.6667 16.5325 13.4911 16.845 13.1786C17.1576 12.866 17.3332 12.4421 17.3332 12V2.00004C17.3332 1.55801 17.1576 1.13409 16.845 0.821529C16.5325 0.508969 16.1085 0.333374 15.6665 0.333374Z" fill="#42A5F5"/>
</svg>
